<?xml version="1.0" encoding="UTF-8"?><svg id="Capa_1" xmlns="http://www.w3.org/2000/svg" viewBox="0 0 525.3 377.84"><defs><style>.cls-1{fill:#f5f5f5;}.cls-1,.cls-2,.cls-3,.cls-4,.cls-5,.cls-6,.cls-7,.cls-8,.cls-9,.cls-10{stroke-width:0px;}.cls-2{fill:#f4f4f4;}.cls-3{fill:#a5a5a5;}.cls-4{fill:#2c2c2c;}.cls-5{fill:#010101;}.cls-6{fill:#e2e2e2;}.cls-7{fill:#f1f1f1;}.cls-8{fill:#ededed;}.cls-9{fill:#fff;}.cls-10{fill:#030303;}</style></defs><path class="cls-9" d="M525.11,371.92c-1.4-8.1-5.2-15.3-7.9-22.9-2.8-7.9-5.5-15.9-7-24.3-2.3-13.7-2.8-28-8.5-40.8-5.2-11.7-7.6-23.8-8.5-36.4-.2-3.2-2.9-7.5,3-8.9,1-.2.5-1.9.3-2.9-.4-2.3-.8-4.5-1.3-6.8-.6-2.3-.5-3.7,2.3-4.7,3.6-1.4,5.1-4.8,6.2-8.6,1.6-5.6-.4-10.8-.8-16.1-.7-7.6,1.1-15.2.8-22.7-1.3-28.6-3.2-57.1-5-85.7-.2-2.7-.9-5.3-3.2-7-6.3-4.4-9.3-10.8-10.8-18-2.7-11.9-6.8-23.5-11.5-34.9-3.1-7.4-13.1-14.3-19.4-13.4-8.5,1.3-12.5,7.7-15.3,15.1-.8,2.1-1.7,4.4-1.8,6.6-.4,9-4.6,17.5-2.5,27,.7,3.2.6,8.2-2.8,10.6-5.4,3.8-8.2,9-9.6,15.2-5,21.6-12.3,42.3-21.4,62.4-4.6,10.2-12,17.6-20.8,23.9-4.5,3.3-7.2,7.5-8.5,12.5v4.1c2-.2,1.8-2.7,3.3-3.1.7,1.5-.2,2.5-.4,3.7-.1,1.3.8,2.6,1.5,1.5,1.4-2.3,3.8-1.4,5.3-1.7,4.6-1,4.7-5.4,7.2-7.8,6-5.6,11.8-11.6,17.6-17.5,12.3-12.7,24.4-25.5,26-44.7h0c.8,6.4,2.2,12.4-1.6,18.8-14.7,24.9-28.8,50.1-41.2,76.2-1.6,3.4-1,4.5,2,5.9,4.1,1.9,8.2,4,12.8,4.6,5.2.7,10.4,1.5,15.6,2.3,2.3.4,4.3,1,4.9,3.9,3.2,14.1,7.4,28,7,42.7-.3,9.6,1,19,2.9,28.4,2.1,10.7,5.5,21.2,5.9,32.2.3,8.2-1,16.2-2.1,24.2-.6,4.7,2.7,8.6,7.5,8.9,5.5.3,9.5-3.1,8.8-8.4-1-7.9-.4-15.9-.4-23.8,0-2.9-.2-5.9-2.5-7.8-2.3-2-2.4-4.3-2.4-7.1.3-14.5,2.5-29,.8-43.4-1.7-14,1.7-27.8-.4-41.7-.2-1.1-.3-2.4,1.2-3.1,3.7-1.7,15,2.2,16.3,6,4.1,12,9.6,23.6,13.2,35.6,5.2,17.4,12.9,33.5,20.7,49.7,1.5,3.1,2.5,6.2,2,9.7-.7,5.4.5,10.5,2.3,15.5,1.6,4.3,3.1,8.6,3.7,13.2,1,8,3,9.5,11,9.7,4.6.2,6.3-1.5,5.5-5.9h0Z"/><path class="cls-9" d="M370.31,195.22c.2-1.4.5-2.8.8-4.1,0-1,.1-2,.2-3,.7-7.1-.1-14.1-4.1-21.3-3.1-5.7-8.5-11.2-8-19.4.2-3.1-.2-5.6,1.6-8.2,5.6-8,11.1-16,16.5-24.1,3.4-5.1,4.1-9.9.7-15.9-4-7.1-10.9-12.3-12.6-20.9-1.8-9.2-8-14.5-16.8-16.8-11.8-3.1-15.5-13.1-7.7-22.7.4.8.8,1.6,1.2,2.4.9-1.3-.3-3.1,1.1-4.2,1.2.8-.4,2.8,1.1,3,4.2-8.4,1-16.5-.6-24.6-2.8-14.2-12.9-19-25.6-12.7-.7.3-1.3.7-2,1-7.8,3-9,5.2-8.5,13.7.4,8.2,4.5,15.6,4.7,23.8,1.8.6,1.2-3,2.6-1.6,1.8,1.8,4.1,3.7,4.3,6.6.2,2.3-1.3,3.8-3.3,4.9-3.7,1.9-7.4,3.7-11.6,4.6-5.8,1.2-11.5,3.3-13.8,9.7-3.4,9.6-6.3,19.2-7.3,29.4-.7,7.4-1.5,14.9-3.8,22-2.5,8-2.1,15.9.3,23.7,1.6,5.1,3.1,10.3,5.5,15,5.2,10,6.4,19.4-1.5,28.5-.8,1-2,2.3-.3,3.9,5.9,5.6,9.4,13.4,16.3,18.2,2.7,1.9,3.2,4.6,3.7,7.8,3.3,23.5-1.7,46.8-1.8,70.3,0,1.2-.8,2.5-1.4,3.7-9.4,20.3-22.2,37.7-41.2,50-1,.6-1.8,1.4-2.7,2.1-5.6,4.5-5.9,7.3-1.5,13,1.1,1.5,2.6,2.9,4.2,3.8,4.4,2.5,7.5,5.3,3,11,5.7,0,10.4,2.1,14.8,2.8,3.4.6,5.5,2.2,8.1,3.4,1,.5,1.8-.1,2.6-.7,8-5.2,18.6-8.6,14.9-21.9-.2-.7.1-1.5.1-2.3-.1-2.2,1.1-3,3-3.4,2-.4,3.1.5,4,2.3,1.3,2.7.9,5.6,1.4,8.4.3,1.5,0,3,2.1,3.5,7.9,1.7,15.6,3,22.4-3.6,5.4-5.2,23.6-5.5,29-.4,4.1,3.9,8.8,5.1,14,5.1,2.3,0,6.5,1.7,4.8-3.9-.4-1.3,1.1-1.9,2.1-2.2,7.1-1.9,13.5-7.3,21.7-4.2h0c.3-2.8-1.7-5.2-.1-7.6,2.1-3.2,1.4-6.5.5-9.8-3.8-14.2-7.2-28.5-11.5-42.6-6.1-19.8-9.4-40.6-20.7-58.6-1.2-1.9-2-4.4-1.8-6.6.9-10.3-2.2-20.3-2.6-30.5.1.2-.2.2-.5.2h0ZM348.01,89.82c-.5,1.1-1.3,2-2.7,2h0c-.8-.9-.5-2-.5-3,0-1.1-.6-2.5.6-3.3.6-.4,1.5-.2,2,.5.9,1.1,1.3,2.4.6,3.8h0Z"/><path class="cls-9" d="M371.11,191.12c-.4,1.3-.6,2.7-.8,4.1h.8c0-1.4-.1-2.8,0-4.1h0Z"/><path class="cls-9" d="M40.71,54.72c-.7-4.6-3.6-8.6-3.4-13.4,0-.9-.6-1.2-1.3-1.6-4.1-2.4-4.3-6.7-3.3-10.2.9-3,.5-5.3-.4-7.8-1.9-5.5-.6-10.5,1.8-15.5.6-1.2,1.3-2.4,2.5-2.6,4-.6,7.8-2.5,11.7-2.8,13.9-1.1,22.5,9.3,19.6,23-.7,3.3,1.8,6.2.9,9.6-.4,1.3.4,3.1-.8,4-4,3.1-2.8,7.8-4,11.8-.7,6.1-5,9.9-9,13.9-1.7,1.7-3.7,1.8-5.9.6-3.4-1.9-6.4-4.3-8.5-7.5-.3-.6-.2-1.1.1-1.5h0Z"/><path class="cls-9" d="M177.41,47.22c-1.1-2.6-2.4-5-2.2-8,.1-.9-.1-1.5-.9-2.3-3.2-3.4-5-7.3-1.8-11.9.5-.7.3-2.1,0-3.1-1.7-7.4-1-13.2,6.7-17.7,7.7-4.5,13.8-5.7,21.4-1.1,2.3,1.4,4.4,3.2,5.3,5.7,2.6,7.7,2.5,16,2.1,23.8-.2,3.9-3.4,8.6-5,13.1-.6,1.5-1,2.9-.5,4.4,1.2,2.5-.7,3.7-2.1,5-5.6,5.2-16,4.6-21.5-.7-2.4-2.2-.3-5-1.5-7.2h0Z"/><path class="cls-3" d="M206.31,52.82c-.5,4.5,2.3,8,4.4,11.1,4.2,6.2,2.9,11.5.3,17.6-6.6,15.2-12.8,30.5-19.2,45.7-.1.1-.1.3-.2.4-.9,1.4-1,3.9-2.7,4-1.9.1-1.9-2.5-2.4-3.9-7.2-17.9-14.2-35.9-21.4-53.8-.7-1.7-.4-2.8.5-4.3,2.5-4.1,4.7-8.3,7.3-12.4,1-1.5,1.1-3.2,1.6-4.7.3-.5.7-.9,1-1.4,2.3-1.3,2.1.7,2.5,1.9,1.2,3.5.2,7.2,1.1,10.6,2.9,10.9,4.9,22,6.4,33.3.2,1.7.5,3.4.3,5.1,0,.1-.3.7.3.5.1,0,.1-.6.3-.8,3.2,0,2.3,2.6,2.4,4.2.4,4.9-1.3,9.9.2,14.8,0,.1.1.2.1.3,2.4-4.4.9-9.5,2.4-14.1,2.2-8.3,3.3-16.9,5-25.3.9-4.2,1.6-8.4,3.5-12.4,2-4.2,1.2-9.1,2.1-13.7.3-1.6-.2-3.8,2.2-4.3.6.5,1.3,1.1,2,1.6h0Z"/><path class="cls-1" d="M204.31,51.12c-1,.6-.8,1.6-.9,2.5-1.4,18.1-8.1,35.1-10.4,53,0,.2-.1.4-.2.4-.2.1-.5,0-.7,0-1.3-1.2-1.3-2.8-1.2-4.3.1-7.9-.6-15.8.6-23.7.8-5.3-.9-10.3-2-15.4-.5,4.2-1.6,8.3-1.6,12.5v19.5c0,2,.3,4.1-1.1,5.8-.1,1.7-.2,3.3-.3,5l-.7.1c-1.2-7.4-2.7-14.8-3.6-22.2-1.4-10.5-6-20.5-5.1-31.4.1-1-.3-1.8-1.6-1.7.9-1.2,2.2-2.2,1.9-4,2,7.2,4.9,9.8,11.6,10.3,6.3.5,11.1-2.1,13.4-7.3.9,0,1.6.1,1.9.9h0Z"/><path class="cls-3" d="M69.81,56.52c2.3,2.1,1.8,5.8,4.7,7.8,1.5,1,.7,3.1.1,4.8-4.1,11.7-8.2,23.3-12.3,35-2.3,6.6-4.5,13.2-6.7,19.7-.6.3-1,.2-1.4-.4-1.2-5.4.7-10.7,1.4-16,.9-7.5,1.8-15,2.8-22.5,1.1-4.4,1.3-8.9,1.9-13.3.8-4.5.8-9.1,1.4-13.6.3-2.2.7-4.2,2.4-5.8,1.9,1.4,3.8,2.9,5.7,4.3h0Z"/><path class="cls-3" d="M54.81,123.82c.3,0,.5,0,.8-.1-.2,1.9-.8,3.8-2.3.8-2.2-4.4-3.9-9-5.8-13.5-5.5-13-11-26-16.7-38.9-1-2.2-1.5-3.9.7-5.7,2.1-1.7-1.5-2-1.1-3.3,4.3-1.7,7-5.4,10.3-8.4,0,.4,0,.7.1,1.1,3,4.2,2.4,9.3,3.7,13.9,1.2,5.9,1.3,11.9,3.5,17.6,1.1,8.4,2.5,16.7,4.7,24.8,1,3.9.4,8,2.1,11.7h0Z"/><path class="cls-6" d="M43.51,69.92c-1.6-4.5-1.7-9.4-2.7-14,2.9,2.3,5.4,4.9,8.6,6.8,1.5.8,2.8,1.5,4.1.1,4-4.1,8.4-8,10.5-13.6,0,1,.1,2,.1,3.1-.9,6.5-1.8,13.1-2.7,19.6-1.7-.7-3.3-1.6-4.9-2.4-2.8-2.8-5.4-3.4-7.8.4-1.8.6-3.5,1.6-5.2,0h0Z"/><path class="cls-9" d="M188.41,203.12c.1,3.1.2,6.2.3,9.3.6,48.2-2.3,96.4,3.5,144.5.4,2.9,4.1,5.5,6.2,3.6,3.5-3,3.9.7,5.1,2,.8.9.8,2.6,2.3,3.3,5,2.3,10.1,4,15.7,2.9,4.9-1,5.4-2.2,2-5.9-4.2-4.7-8.7-9.2-12.3-14.5-.6-.9-1.4-1.4-1.3-3.1,1.1-14.1,1.5-28.2,2.6-42.3,1.4-17.6-1.6-35.4,2.1-52.9,1.2-5.9,1.8-11.9,2.8-17.9,2.3-13.4,4-27,7.3-40.3.4-1.4.1-3.4,2.1-3.7,6.4-.9,8.4-5.9,8.9-10.9,1.6-15.5,9.1-30,6.8-46.4-.9-6.6-.9-13.8-.8-20.7.1-13.1-2.6-25.9-4.9-38.7-.8-4.8-3.1-8.4-8.3-10.1-7.4-2.5-14.7-5.5-22-8.4-2.6.6-1.1,2.3-.6,3.3,1.4,3.1,2.5,6.4,4.4,9.2,3.2,4.7,2.8,9.2.6,14.1-5.6,12.6-10.8,25.4-16.3,38.1-1.7,3.9-2.9,8.1-5.1,11.8-1.8-.8-1.9-2.3-2.3-3.6-5-13.2-9.7-26.6-15.6-39.3-4.9-10.3-5.8-19.1,2.1-28,1.4-1.5,2.5-3.7,1.1-6-6.9,4.4-14.1,8.4-21.9,10.9-5.8,1.9-9.3,5.3-8.7,11.9.1.8-.3,1.8-.6,2.6-2.2,5-3.2,10.3-4.1,15.7-1.3,7.6-1.5,15.5-3.7,22.9-4,13.9-2.9,28,.8,41.6,1.6,5.8,3.1,11.6,3.9,17.5.3,2.7,1.2,4.7,4.1,5.4,3.2.8,4.4,3,4.1,6.2-.4,4.3-.6,8.7-.7,13-.2,19.4-1.9,38.7-1.6,58.1.2,15.1-2.6,30.2-2.6,45.5,0,14.1-1.4,28.1-3.2,42.1-.9,6.7-3.8,9.6-8.6,12.4-3.3,1.9-6.6,4-9.8,6.1-1.3.8-1.9,1.9-1.6,3.5.3,1.8,1.6,2.2,2.9,2.4,8,1,15.9,1.8,23-3.9,2.3-1.8,5.2-3.6,8.9-1.5,3,1.8,7.2,0,7.5-2.4.7-5.9,1.7-11.7,3.5-17.5,3.1-9.7,2.2-20,2.9-30,1.1-16,.6-32.2,4.6-48,5.5-21.5,10.1-43.2,13.3-65.1.5-.5.6-1.3.8-1.9M156.71,146.52c-6.2-11.9-1-23.1,1.3-34.5,1.5,11.5.8,23-1.3,34.5ZM221.51,146.22c-1.5-11.3-2.6-22.3-.4-33.4,2.6,10.9,5.7,22,.4,33.4Z"/><path class="cls-8" d="M217.91,98.52h-10.6c2.1-1.4,3.3-2.2,4.5-2.9,3.1-2,5.1-1,6.1,2.9Z"/><path class="cls-9" d="M97.81,180.72c5-.4,4.2-4.1,5.1-6.5,2.1-5.8,3.6-11.8,5.5-17.8,3.5-11.2,6.2-22.7,4.6-34.3-2.8-19.3-8.2-38.1-14.3-56.7-.9-2.7-2.3-4-5.1-4.5-7.9-1.3-15.8-2.8-23.7-4.3h0c-.1-.1-.3-.2-.4-.2s-.3,0-.4.1c-.9,1.3.5,1.8.9,2.7,1.4,3.9,4.9,6.9,2.8,12.1-6.6,16.9-12.1,34.2-18,51.3-.1.2-.1.3-.2.4-.1.1-.3.2-.4.2-2.3-1.7-2.2-4.6-3.2-7-6.2-14.4-12.1-28.9-18.5-43.2-.8-1.9-1.7-3.7-.1-5.7,2.2-2.7.2-3.5-1.9-4.3-4.5,1.7-8.9,3.4-13.4,5.1-2.9,1-4.5,3-5.2,6-1.3,5.3-2.8,10.5-4.1,15.7C4.11,104.52.31,119.32.01,134.62c-.4,18.6,7.8,35.2,13.5,52.4.2.7.8,1.6,1.3,1.7,6,.7,7,5,7.6,9.9.7,6,1.5,12,2.2,18,1.8,16.2,5.6,32.2,5.3,48.5-.5,22.8,6.8,44.3,10.3,66.4.4,2.3.4,4-.8,5.9-2.6,4-5.4,8-7.5,12.3-1.5,3.1-2.3,6.9.5,9.6,2.9,2.9,6.5,1.6,10,.5,8.2-2.7,8.7-12.1,14.8-16.6.4-.3.1-1.5.3-2.2,1.2-5.8.1-11.7.3-17.6.4-9-4-17.2-3.2-26.4,1-11.4.4-23-2.8-34.2-.2-.6-.3-1.2-.3-1.8,1.2-14.8,2.2-29.7,3.6-44.5.5-5.1.6-10.4,2.6-15.7,1.8,2.1,2.2,4.4,2.7,6.6,3,13,7.3,25.6,10.7,38.5,2.6,9.8,4.8,19.8,3.8,30.2-1.1,10.8-1.3,21.8,1,32.4,2.4,10.7,2.2,21.4,1.2,32.1-.6,6.2-2.3,12.4,5.4,15.5.8.3.9,1.2,1.1,1.9,2.6,9.4,6.8,12.7,16.2,12.8,5.2,0,6.7-1.7,6.2-6.8-.2-2.2-1.1-4.2-2.3-6-2-3.3-4.1-6.6-5.9-10-1.2-2.3-2.7-4.9-1.8-7.5,2.4-7,1.9-14,1.8-21.2-.4-15.7.6-31.4-.8-47-2.4-27.9-2.3-55.8-3.3-83.8-.3-3.6,2.1-7.7,4.1-7.8h0ZM23.11,159.12h0c-4.6-11.7-6-23.5-2.1-35.6,1.3-4.2,3-8.4,2.8-13,5.2,16.3,4.5,32.5-.7,48.6ZM92.11,143.62c-.8-10.1-1.6-20.3-2.4-31.1,5,7.4,6.2,25.6,2.4,31.1Z"/><path class="cls-4" d="M81.01,93.02c1.6.1,3.1-.3,3.3,1.5.3,2-1.1,2.2-2.6,2.3-3.3.3-6.7.8-10,1.3-1.2.2-2.6,1-2.9-.9-.3-1.8.7-3,2.5-3.1,3.4-.2,6.8-.1,9.7-1.1h0Z"/><path class="cls-10" d="M186.81,101.42c-.1-9.5-.2-18.9-.3-28.4,0-3.1,2.6-6,.4-9.4-.5-.8,1.4-3,3-2.9,1,.1,2.5,1.4,2.4,3-.3,7.9.9,15.8.2,23.8-.5,6.5-.3,13-.4,19.6.3,5.5-.6,10.8-1.8,16.1-.2.7-.2,1.5-1.5,1.9-.9-4.6-2.7-8.7-1.5-13.7.8-3.2,1-6.8-.5-10h0Z"/><path class="cls-5" d="M48.21,69.72c-.3-2.5,1.7-4,3.2-4.3,2.2-.4,4.2,1.1,5.2,3.4-.6,5.5,3.3,10.3,2.7,15.8-.3,11.7-2.6,23.1-4.2,34.6-.2,1.5-.3,3.1-.4,4.6-3.7-4.7-2.8-10.7-4.5-16.1-1.6-4.9-2-10.2-3.3-15.2-.5-2,1.1-3.6.3-5.3-1.4-2.3-.9-4.8-.2-7.1,1-3.4,1.5-6.8,1.2-10.4h0Z"/><path class="cls-7" d="M59.41,84.62c-.8-2.3-1.3-4.7-2.5-6.8-1.8-3.1-1.7-6-.2-9.1,1.8.6,4.2.4,4.7,3-.4,4.4-.1,8.9-2,12.9h0Z"/><path class="cls-2" d="M48.21,69.72c2.1,2.3,2.1,4.8.9,7.6-1.4,3.1-2.1,6.4-1.9,9.9-2-.4-1.5-2.1-1.7-3.3-.7-4.7-1.4-9.4-2-14.1,1.6.4,3.1-1,4.7-.1h0Z"/></svg>